<mxfile host="app.diagrams.net" agent="Mozilla/5.0 (Windows NT 10.0; Win64; x64) AppleWebKit/537.36 (KHTML, like Gecko) Chrome/133.0.0.0 Safari/537.36" version="26.0.16">
  <diagram name="Página-1" id="p5n7T6RllIl4txyxJbvd">
    <mxGraphModel dx="1290" dy="691" grid="1" gridSize="10" guides="1" tooltips="1" connect="1" arrows="1" fold="1" page="1" pageScale="1" pageWidth="827" pageHeight="1169" math="0" shadow="0">
      <root>
        <mxCell id="0" />
        <mxCell id="1" parent="0" />
        <mxCell id="sExM6d3Ox2T_a3n4r-fm-123" style="edgeStyle=orthogonalEdgeStyle;rounded=0;orthogonalLoop=1;jettySize=auto;html=1;exitX=0.25;exitY=0;exitDx=0;exitDy=0;entryX=0.5;entryY=1;entryDx=0;entryDy=0;" edge="1" parent="1" source="sExM6d3Ox2T_a3n4r-fm-34" target="sExM6d3Ox2T_a3n4r-fm-36">
          <mxGeometry relative="1" as="geometry" />
        </mxCell>
        <mxCell id="sExM6d3Ox2T_a3n4r-fm-124" style="edgeStyle=orthogonalEdgeStyle;rounded=0;orthogonalLoop=1;jettySize=auto;html=1;exitX=0.75;exitY=0;exitDx=0;exitDy=0;entryX=0.5;entryY=1;entryDx=0;entryDy=0;" edge="1" parent="1" source="sExM6d3Ox2T_a3n4r-fm-34" target="sExM6d3Ox2T_a3n4r-fm-96">
          <mxGeometry relative="1" as="geometry" />
        </mxCell>
        <mxCell id="sExM6d3Ox2T_a3n4r-fm-125" style="edgeStyle=orthogonalEdgeStyle;rounded=0;orthogonalLoop=1;jettySize=auto;html=1;exitX=0.5;exitY=1;exitDx=0;exitDy=0;entryX=0.5;entryY=0;entryDx=0;entryDy=0;" edge="1" parent="1" source="sExM6d3Ox2T_a3n4r-fm-34" target="sExM6d3Ox2T_a3n4r-fm-83">
          <mxGeometry relative="1" as="geometry" />
        </mxCell>
        <mxCell id="sExM6d3Ox2T_a3n4r-fm-126" style="edgeStyle=orthogonalEdgeStyle;rounded=0;orthogonalLoop=1;jettySize=auto;html=1;exitX=0.25;exitY=1;exitDx=0;exitDy=0;entryX=0.5;entryY=0;entryDx=0;entryDy=0;" edge="1" parent="1" source="sExM6d3Ox2T_a3n4r-fm-34" target="sExM6d3Ox2T_a3n4r-fm-84">
          <mxGeometry relative="1" as="geometry" />
        </mxCell>
        <mxCell id="sExM6d3Ox2T_a3n4r-fm-127" style="edgeStyle=orthogonalEdgeStyle;rounded=0;orthogonalLoop=1;jettySize=auto;html=1;exitX=0.75;exitY=1;exitDx=0;exitDy=0;entryX=0.5;entryY=0;entryDx=0;entryDy=0;" edge="1" parent="1" source="sExM6d3Ox2T_a3n4r-fm-34" target="sExM6d3Ox2T_a3n4r-fm-82">
          <mxGeometry relative="1" as="geometry" />
        </mxCell>
        <mxCell id="sExM6d3Ox2T_a3n4r-fm-34" value="" style="rounded=0;whiteSpace=wrap;html=1;" vertex="1" parent="1">
          <mxGeometry x="50" y="290" width="160" height="90" as="geometry" />
        </mxCell>
        <mxCell id="sExM6d3Ox2T_a3n4r-fm-35" value="&lt;h1 style=&quot;margin-top: 0px;&quot;&gt;Diagrama ER&lt;/h1&gt;&lt;p&gt;Desenvolvido por:&lt;/p&gt;&lt;p&gt;&amp;nbsp;Vitor Vitorino&amp;nbsp; e&amp;nbsp;&lt;span style=&quot;background-color: transparent; color: light-dark(rgb(0, 0, 0), rgb(255, 255, 255));&quot;&gt;Gabriella Vitória&lt;/span&gt;&lt;/p&gt;" style="text;html=1;whiteSpace=wrap;overflow=hidden;rounded=0;" vertex="1" parent="1">
          <mxGeometry x="80" y="30" width="180" height="120" as="geometry" />
        </mxCell>
        <mxCell id="sExM6d3Ox2T_a3n4r-fm-36" value="" style="ellipse;whiteSpace=wrap;html=1;" vertex="1" parent="1">
          <mxGeometry x="10" y="225" width="110" height="45" as="geometry" />
        </mxCell>
        <mxCell id="sExM6d3Ox2T_a3n4r-fm-37" value="" style="ellipse;whiteSpace=wrap;html=1;" vertex="1" parent="1">
          <mxGeometry x="140" y="230" width="80" height="30" as="geometry" />
        </mxCell>
        <mxCell id="sExM6d3Ox2T_a3n4r-fm-38" value="" style="ellipse;whiteSpace=wrap;html=1;" vertex="1" parent="1">
          <mxGeometry x="180" y="410" width="80" height="30" as="geometry" />
        </mxCell>
        <mxCell id="sExM6d3Ox2T_a3n4r-fm-39" value="" style="ellipse;whiteSpace=wrap;html=1;" vertex="1" parent="1">
          <mxGeometry x="90" y="410" width="80" height="30" as="geometry" />
        </mxCell>
        <mxCell id="sExM6d3Ox2T_a3n4r-fm-40" value="" style="ellipse;whiteSpace=wrap;html=1;" vertex="1" parent="1">
          <mxGeometry y="410" width="80" height="30" as="geometry" />
        </mxCell>
        <mxCell id="sExM6d3Ox2T_a3n4r-fm-128" style="edgeStyle=orthogonalEdgeStyle;rounded=0;orthogonalLoop=1;jettySize=auto;html=1;exitX=0.25;exitY=0;exitDx=0;exitDy=0;entryX=0.5;entryY=1;entryDx=0;entryDy=0;" edge="1" parent="1" source="sExM6d3Ox2T_a3n4r-fm-59" target="sExM6d3Ox2T_a3n4r-fm-80">
          <mxGeometry relative="1" as="geometry" />
        </mxCell>
        <mxCell id="sExM6d3Ox2T_a3n4r-fm-129" style="edgeStyle=orthogonalEdgeStyle;rounded=0;orthogonalLoop=1;jettySize=auto;html=1;exitX=0.75;exitY=0;exitDx=0;exitDy=0;entryX=0.5;entryY=1;entryDx=0;entryDy=0;" edge="1" parent="1" source="sExM6d3Ox2T_a3n4r-fm-59" target="sExM6d3Ox2T_a3n4r-fm-79">
          <mxGeometry relative="1" as="geometry" />
        </mxCell>
        <mxCell id="sExM6d3Ox2T_a3n4r-fm-130" style="edgeStyle=orthogonalEdgeStyle;rounded=0;orthogonalLoop=1;jettySize=auto;html=1;exitX=0.5;exitY=1;exitDx=0;exitDy=0;entryX=0.5;entryY=0;entryDx=0;entryDy=0;" edge="1" parent="1" source="sExM6d3Ox2T_a3n4r-fm-59" target="sExM6d3Ox2T_a3n4r-fm-115">
          <mxGeometry relative="1" as="geometry" />
        </mxCell>
        <mxCell id="sExM6d3Ox2T_a3n4r-fm-131" style="edgeStyle=orthogonalEdgeStyle;rounded=0;orthogonalLoop=1;jettySize=auto;html=1;exitX=0.25;exitY=1;exitDx=0;exitDy=0;entryX=0.5;entryY=0;entryDx=0;entryDy=0;" edge="1" parent="1" source="sExM6d3Ox2T_a3n4r-fm-59" target="sExM6d3Ox2T_a3n4r-fm-119">
          <mxGeometry relative="1" as="geometry" />
        </mxCell>
        <mxCell id="sExM6d3Ox2T_a3n4r-fm-132" style="edgeStyle=orthogonalEdgeStyle;rounded=0;orthogonalLoop=1;jettySize=auto;html=1;exitX=0.75;exitY=1;exitDx=0;exitDy=0;entryX=0.5;entryY=0;entryDx=0;entryDy=0;" edge="1" parent="1" source="sExM6d3Ox2T_a3n4r-fm-59" target="sExM6d3Ox2T_a3n4r-fm-117">
          <mxGeometry relative="1" as="geometry">
            <Array as="points">
              <mxPoint x="454" y="400" />
              <mxPoint x="476" y="400" />
            </Array>
          </mxGeometry>
        </mxCell>
        <mxCell id="sExM6d3Ox2T_a3n4r-fm-59" value="" style="rounded=0;whiteSpace=wrap;html=1;" vertex="1" parent="1">
          <mxGeometry x="334" y="290" width="160" height="90" as="geometry" />
        </mxCell>
        <mxCell id="sExM6d3Ox2T_a3n4r-fm-60" value="" style="ellipse;whiteSpace=wrap;html=1;" vertex="1" parent="1">
          <mxGeometry x="324" y="230" width="80" height="30" as="geometry" />
        </mxCell>
        <mxCell id="sExM6d3Ox2T_a3n4r-fm-61" value="" style="ellipse;whiteSpace=wrap;html=1;" vertex="1" parent="1">
          <mxGeometry x="424" y="230" width="80" height="30" as="geometry" />
        </mxCell>
        <mxCell id="sExM6d3Ox2T_a3n4r-fm-133" style="edgeStyle=orthogonalEdgeStyle;rounded=0;orthogonalLoop=1;jettySize=auto;html=1;exitX=0.25;exitY=0;exitDx=0;exitDy=0;entryX=0.5;entryY=1;entryDx=0;entryDy=0;" edge="1" parent="1" source="sExM6d3Ox2T_a3n4r-fm-65" target="sExM6d3Ox2T_a3n4r-fm-66">
          <mxGeometry relative="1" as="geometry" />
        </mxCell>
        <mxCell id="sExM6d3Ox2T_a3n4r-fm-134" style="edgeStyle=orthogonalEdgeStyle;rounded=0;orthogonalLoop=1;jettySize=auto;html=1;exitX=0.75;exitY=0;exitDx=0;exitDy=0;entryX=0.5;entryY=1;entryDx=0;entryDy=0;" edge="1" parent="1" source="sExM6d3Ox2T_a3n4r-fm-65" target="sExM6d3Ox2T_a3n4r-fm-91">
          <mxGeometry relative="1" as="geometry" />
        </mxCell>
        <mxCell id="sExM6d3Ox2T_a3n4r-fm-135" style="edgeStyle=orthogonalEdgeStyle;rounded=0;orthogonalLoop=1;jettySize=auto;html=1;exitX=0.5;exitY=1;exitDx=0;exitDy=0;entryX=0.75;entryY=0;entryDx=0;entryDy=0;" edge="1" parent="1" source="sExM6d3Ox2T_a3n4r-fm-65" target="sExM6d3Ox2T_a3n4r-fm-87">
          <mxGeometry relative="1" as="geometry" />
        </mxCell>
        <mxCell id="sExM6d3Ox2T_a3n4r-fm-136" style="edgeStyle=orthogonalEdgeStyle;rounded=0;orthogonalLoop=1;jettySize=auto;html=1;exitX=0.5;exitY=1;exitDx=0;exitDy=0;entryX=0.25;entryY=0;entryDx=0;entryDy=0;" edge="1" parent="1" source="sExM6d3Ox2T_a3n4r-fm-65" target="sExM6d3Ox2T_a3n4r-fm-93">
          <mxGeometry relative="1" as="geometry" />
        </mxCell>
        <mxCell id="sExM6d3Ox2T_a3n4r-fm-137" style="edgeStyle=orthogonalEdgeStyle;rounded=0;orthogonalLoop=1;jettySize=auto;html=1;exitX=0.75;exitY=1;exitDx=0;exitDy=0;entryX=0.5;entryY=0;entryDx=0;entryDy=0;" edge="1" parent="1" source="sExM6d3Ox2T_a3n4r-fm-65" target="sExM6d3Ox2T_a3n4r-fm-92">
          <mxGeometry relative="1" as="geometry" />
        </mxCell>
        <mxCell id="sExM6d3Ox2T_a3n4r-fm-138" style="edgeStyle=orthogonalEdgeStyle;rounded=0;orthogonalLoop=1;jettySize=auto;html=1;exitX=0.25;exitY=1;exitDx=0;exitDy=0;entryX=0.75;entryY=0;entryDx=0;entryDy=0;" edge="1" parent="1" source="sExM6d3Ox2T_a3n4r-fm-65" target="sExM6d3Ox2T_a3n4r-fm-88">
          <mxGeometry relative="1" as="geometry" />
        </mxCell>
        <mxCell id="sExM6d3Ox2T_a3n4r-fm-65" value="" style="rounded=0;whiteSpace=wrap;html=1;" vertex="1" parent="1">
          <mxGeometry x="617" y="290" width="160" height="90" as="geometry" />
        </mxCell>
        <mxCell id="sExM6d3Ox2T_a3n4r-fm-66" value="" style="ellipse;whiteSpace=wrap;html=1;" vertex="1" parent="1">
          <mxGeometry x="595" y="220" width="97" height="50" as="geometry" />
        </mxCell>
        <mxCell id="sExM6d3Ox2T_a3n4r-fm-67" value="" style="ellipse;whiteSpace=wrap;html=1;" vertex="1" parent="1">
          <mxGeometry x="707" y="230" width="80" height="30" as="geometry" />
        </mxCell>
        <mxCell id="sExM6d3Ox2T_a3n4r-fm-68" value="" style="ellipse;whiteSpace=wrap;html=1;" vertex="1" parent="1">
          <mxGeometry x="730" y="400" width="80" height="30" as="geometry" />
        </mxCell>
        <mxCell id="sExM6d3Ox2T_a3n4r-fm-69" value="" style="ellipse;whiteSpace=wrap;html=1;" vertex="1" parent="1">
          <mxGeometry x="612" y="440" width="80" height="30" as="geometry" />
        </mxCell>
        <mxCell id="sExM6d3Ox2T_a3n4r-fm-70" value="" style="ellipse;whiteSpace=wrap;html=1;" vertex="1" parent="1">
          <mxGeometry x="580" y="400" width="80" height="30" as="geometry" />
        </mxCell>
        <mxCell id="sExM6d3Ox2T_a3n4r-fm-71" value="" style="ellipse;whiteSpace=wrap;html=1;" vertex="1" parent="1">
          <mxGeometry x="702" y="440" width="80" height="30" as="geometry" />
        </mxCell>
        <mxCell id="sExM6d3Ox2T_a3n4r-fm-72" value="" style="rhombus;whiteSpace=wrap;html=1;" vertex="1" parent="1">
          <mxGeometry x="520" y="300" width="80" height="80" as="geometry" />
        </mxCell>
        <mxCell id="sExM6d3Ox2T_a3n4r-fm-73" value="" style="rhombus;whiteSpace=wrap;html=1;" vertex="1" parent="1">
          <mxGeometry x="230" y="300" width="80" height="80" as="geometry" />
        </mxCell>
        <mxCell id="sExM6d3Ox2T_a3n4r-fm-74" value="VISITANTE&lt;span style=&quot;color: rgba(0, 0, 0, 0); font-family: monospace; font-size: 0px; text-align: start; text-wrap-mode: nowrap;&quot;&gt;%3CmxGraphModel%3E%3Croot%3E%3CmxCell%20id%3D%220%22%2F%3E%3CmxCell%20id%3D%221%22%20parent%3D%220%22%2F%3E%3CmxCell%20id%3D%222%22%20value%3D%22%22%20style%3D%22ellipse%3BwhiteSpace%3Dwrap%3Bhtml%3D1%3B%22%20vertex%3D%221%22%20parent%3D%221%22%3E%3CmxGeometry%20x%3D%22657%22%20y%3D%22410%22%20width%3D%2280%22%20height%3D%2230%22%20as%3D%22geometry%22%2F%3E%3C%2FmxCell%3E%3C%2Froot%3E%3C%2FmxGraphModel%3E&lt;/span&gt;" style="text;html=1;align=center;verticalAlign=middle;whiteSpace=wrap;rounded=0;" vertex="1" parent="1">
          <mxGeometry x="100" y="320" width="60" height="30" as="geometry" />
        </mxCell>
        <mxCell id="sExM6d3Ox2T_a3n4r-fm-75" value="MORADOR" style="text;html=1;align=center;verticalAlign=middle;whiteSpace=wrap;rounded=0;" vertex="1" parent="1">
          <mxGeometry x="667" y="320" width="60" height="30" as="geometry" />
        </mxCell>
        <mxCell id="sExM6d3Ox2T_a3n4r-fm-76" value="VISITA" style="text;html=1;align=center;verticalAlign=middle;whiteSpace=wrap;rounded=0;" vertex="1" parent="1">
          <mxGeometry x="384" y="320" width="60" height="30" as="geometry" />
        </mxCell>
        <mxCell id="sExM6d3Ox2T_a3n4r-fm-79" value="DATA" style="text;html=1;align=center;verticalAlign=middle;whiteSpace=wrap;rounded=0;" vertex="1" parent="1">
          <mxGeometry x="434" y="230" width="60" height="30" as="geometry" />
        </mxCell>
        <mxCell id="sExM6d3Ox2T_a3n4r-fm-80" value="ID_VISITA" style="text;html=1;align=center;verticalAlign=middle;whiteSpace=wrap;rounded=0;" vertex="1" parent="1">
          <mxGeometry x="334" y="230" width="60" height="30" as="geometry" />
        </mxCell>
        <mxCell id="sExM6d3Ox2T_a3n4r-fm-82" value="TELEFONE" style="text;html=1;align=center;verticalAlign=middle;whiteSpace=wrap;rounded=0;" vertex="1" parent="1">
          <mxGeometry x="190" y="410" width="60" height="30" as="geometry" />
        </mxCell>
        <mxCell id="sExM6d3Ox2T_a3n4r-fm-83" value="FOTO" style="text;html=1;align=center;verticalAlign=middle;whiteSpace=wrap;rounded=0;" vertex="1" parent="1">
          <mxGeometry x="100" y="410" width="60" height="30" as="geometry" />
        </mxCell>
        <mxCell id="sExM6d3Ox2T_a3n4r-fm-84" value="CPF" style="text;html=1;align=center;verticalAlign=middle;whiteSpace=wrap;rounded=0;" vertex="1" parent="1">
          <mxGeometry x="10" y="410" width="60" height="30" as="geometry" />
        </mxCell>
        <mxCell id="sExM6d3Ox2T_a3n4r-fm-85" style="edgeStyle=orthogonalEdgeStyle;rounded=0;orthogonalLoop=1;jettySize=auto;html=1;exitX=0.5;exitY=1;exitDx=0;exitDy=0;" edge="1" parent="1">
          <mxGeometry relative="1" as="geometry">
            <mxPoint x="180" y="260" as="sourcePoint" />
            <mxPoint x="180" y="260" as="targetPoint" />
          </mxGeometry>
        </mxCell>
        <mxCell id="sExM6d3Ox2T_a3n4r-fm-86" value="ID_MORADOR" style="text;html=1;align=center;verticalAlign=middle;whiteSpace=wrap;rounded=0;" vertex="1" parent="1">
          <mxGeometry x="613.5" y="230" width="60" height="30" as="geometry" />
        </mxCell>
        <mxCell id="sExM6d3Ox2T_a3n4r-fm-87" value="BLOCO" style="text;html=1;align=center;verticalAlign=middle;whiteSpace=wrap;rounded=0;" vertex="1" parent="1">
          <mxGeometry x="622" y="440" width="60" height="30" as="geometry" />
        </mxCell>
        <mxCell id="sExM6d3Ox2T_a3n4r-fm-88" value="TEL" style="text;html=1;align=center;verticalAlign=middle;whiteSpace=wrap;rounded=0;" vertex="1" parent="1">
          <mxGeometry x="590" y="400" width="60" height="30" as="geometry" />
        </mxCell>
        <mxCell id="sExM6d3Ox2T_a3n4r-fm-91" value="CPF" style="text;html=1;align=center;verticalAlign=middle;whiteSpace=wrap;rounded=0;" vertex="1" parent="1">
          <mxGeometry x="717" y="230" width="60" height="30" as="geometry" />
        </mxCell>
        <mxCell id="sExM6d3Ox2T_a3n4r-fm-92" value="&amp;nbsp;NOME" style="text;html=1;align=center;verticalAlign=middle;whiteSpace=wrap;rounded=0;" vertex="1" parent="1">
          <mxGeometry x="740" y="400" width="60" height="30" as="geometry" />
        </mxCell>
        <mxCell id="sExM6d3Ox2T_a3n4r-fm-93" value="AP" style="text;html=1;align=center;verticalAlign=middle;whiteSpace=wrap;rounded=0;" vertex="1" parent="1">
          <mxGeometry x="712" y="440" width="60" height="30" as="geometry" />
        </mxCell>
        <mxCell id="sExM6d3Ox2T_a3n4r-fm-96" value="NOME" style="text;html=1;align=center;verticalAlign=middle;whiteSpace=wrap;rounded=0;" vertex="1" parent="1">
          <mxGeometry x="150" y="230" width="60" height="30" as="geometry" />
        </mxCell>
        <mxCell id="sExM6d3Ox2T_a3n4r-fm-97" value="ID_VISITANTE" style="text;html=1;align=center;verticalAlign=middle;whiteSpace=wrap;rounded=0;" vertex="1" parent="1">
          <mxGeometry x="35" y="232.5" width="60" height="30" as="geometry" />
        </mxCell>
        <mxCell id="sExM6d3Ox2T_a3n4r-fm-115" value="" style="ellipse;whiteSpace=wrap;html=1;" vertex="1" parent="1">
          <mxGeometry x="368" y="460" width="91" height="40" as="geometry" />
        </mxCell>
        <mxCell id="sExM6d3Ox2T_a3n4r-fm-116" value="" style="ellipse;whiteSpace=wrap;html=1;" vertex="1" parent="1">
          <mxGeometry x="299" y="410" width="80" height="30" as="geometry" />
        </mxCell>
        <mxCell id="sExM6d3Ox2T_a3n4r-fm-117" value="" style="ellipse;whiteSpace=wrap;html=1;" vertex="1" parent="1">
          <mxGeometry x="431" y="410" width="89" height="50" as="geometry" />
        </mxCell>
        <mxCell id="sExM6d3Ox2T_a3n4r-fm-118" value="ID_VISITANTE" style="text;html=1;align=center;verticalAlign=middle;whiteSpace=wrap;rounded=0;" vertex="1" parent="1">
          <mxGeometry x="391.5" y="467.5" width="44" height="25" as="geometry" />
        </mxCell>
        <mxCell id="sExM6d3Ox2T_a3n4r-fm-119" value="HORA" style="text;html=1;align=center;verticalAlign=middle;whiteSpace=wrap;rounded=0;" vertex="1" parent="1">
          <mxGeometry x="309" y="410" width="60" height="30" as="geometry" />
        </mxCell>
        <mxCell id="sExM6d3Ox2T_a3n4r-fm-121" value="ID_MORADOR" style="text;html=1;align=center;verticalAlign=middle;whiteSpace=wrap;rounded=0;" vertex="1" parent="1">
          <mxGeometry x="450" y="420" width="53" height="30" as="geometry" />
        </mxCell>
      </root>
    </mxGraphModel>
  </diagram>
</mxfile>
